Coordinates
version=1
nRows=17
nColumns=36
inDegrees=yes

Units are S.I. units (second, meters, Newtons, ...)
If the header above contains a line with 'inDegrees', this indicates whether rotational values are in degrees (yes) or radians (no).

endheader
time	pelvis_tilt	pelvis_list	pelvis_rotation	pelvis_tx	pelvis_ty	pelvis_tz	hip_flexion_r	hip_adduction_r	hip_rotation_r	knee_angle_r	knee_angle_r_beta	ankle_angle_r	subtalar_angle_r	mtp_angle_r	hip_flexion_l	hip_adduction_l	hip_rotation_l	knee_angle_l	knee_angle_l_beta	ankle_angle_l	subtalar_angle_l	mtp_angle_l	lumbar_extension	lumbar_bending	lumbar_rotation	arm_flex_r	arm_add_r	arm_rot_r	elbow_flex_r	pro_sup_r	arm_flex_l	arm_add_l	arm_rot_l	elbow_flex_l	pro_sup_l
      0.66333330	     -1.13393263	      0.49556944	      2.84013953	     -0.90019411	      1.24452778	     -0.07396076	      0.27256683	     -0.53538037	      4.35851859	      4.15931361	      0.07259372	      7.09847319	     -7.64604359	     -7.49999987	      0.45927228	     -0.57227182	      6.85526895	      3.01696980	      0.05265606	      5.71949239	     -3.44728354	     -7.49999987	     -5.22225479	      1.13513345	     -2.84048743	      1.53057546	     -9.02486232	     10.39667105	     29.65229278	     72.85461392	     -3.30337387	    -10.28374071	      1.62895482	     36.73368603	     75.30033096
      0.66500000	     -1.17460840	      0.48415493	      2.82886014	     -0.90046314	      1.24342533	     -0.07409136	      0.34420643	     -0.54333567	      4.42606531	      4.18583651	      0.07305663	      7.14303845	     -7.72211535	     -7.49999987	      0.58896982	     -0.56037304	      6.72816960	      3.11801605	      0.05441965	      5.72756057	     -3.52084752	     -7.49999987	     -5.24730287	      1.17518045	     -2.85818933	      1.32630020	     -9.11081423	     10.15980700	     29.69928312	     72.17576503	     -3.45122723	    -10.29489951	      1.52476393	     36.75407672	     74.56093134
      0.66666670	     -1.29142116	      0.49413603	      2.84489136	     -0.90110421	      1.24493118	     -0.07433362	      0.49927963	     -0.58213921	      4.46685265	      4.22331757	      0.07371080	      7.04818282	     -7.83907236	     -7.49999987	      0.82658634	     -0.52495449	      6.67834180	      3.27834695	      0.05721795	      5.58033999	     -3.62341140	     -7.49999987	     -5.14560574	      1.17006801	     -2.91405984	      1.17029746	     -9.06093607	      8.95170632	     29.35452325	     77.68108131	     -3.57719413	    -10.16187363	      0.23997213	     36.49811631	     81.23317913
      0.66833330	     -1.32957024	      0.50454878	      2.86189619	     -0.90113994	      1.24697166	     -0.07443643	      0.52686463	     -0.61189042	      4.49288427	      4.15827838	      0.07257565	      7.00010967	     -7.72377767	     -7.49999987	      0.94239602	     -0.49065105	      6.68373408	      3.35707493	      0.05859201	      5.42077953	     -3.65674862	     -7.49999987	     -5.20174581	      1.16820794	     -2.92204093	      0.95694405	     -9.10681710	      8.69122768	     29.30130513	     76.11207734	     -3.67547500	    -10.16025779	      0.26911896	     36.40328568	     79.49536219
      0.67000000	     -1.30476645	      0.49656046	      2.84710427	     -0.90091380	      1.24496928	     -0.07434451	      0.50162567	     -0.62561447	      4.49076498	      4.13202781	      0.07211749	      6.91641902	     -7.93332643	     -7.49999987	      1.02227592	     -0.47547059	      6.51270510	      3.52692236	      0.06155641	      5.53806671	     -3.56278907	     -7.49999987	     -5.27599449	      1.21059190	     -2.89033264	      0.85092080	     -9.14269430	      8.60627575	     29.07928979	     75.10130267	     -3.67924172	    -10.18360964	      0.38441830	     36.20929800	     78.34986044
      0.67166670	     -1.30987334	      0.49916555	      2.84456222	     -0.90159213	      1.24545624	     -0.07420150	      0.53593642	     -0.64291648	      4.51796258	      4.14185688	      0.07228904	      6.88476184	     -7.97471749	     -7.49999987	      1.10895123	     -0.45766579	      6.67272881	      3.62857091	      0.06333051	      5.32324152	     -3.97317529	     -7.49999987	     -5.34034338	      1.22441587	     -2.90664930	      0.74636681	     -9.20559618	      8.56308919	     28.87624880	     74.49635474	     -3.72967329	    -10.23547935	      0.51459799	     36.05027714	     77.67390206
      0.67333330	     -1.31230092	      0.50458306	      2.83915015	     -0.90044034	      1.24554594	     -0.07567916	      0.52832477	     -0.68415875	      4.53735570	      4.13962289	      0.07225005	      6.84416020	     -7.92444888	     -7.49999987	      1.15581690	     -0.41363039	      6.70356157	      3.68371043	      0.06429288	      5.27000588	     -4.03258612	     -7.49999987	     -5.37048968	      1.25099579	     -2.88629615	      0.55770472	     -9.31918151	      8.54481687	     28.73987172	     74.35414611	     -3.88517834	    -10.24244105	      0.55970695	     36.02216899	     77.52607585
      0.67500000	     -1.40063293	      0.50237186	      2.83242292	     -0.90190874	      1.24371428	     -0.07553742	      0.70973206	     -0.70042652	      4.65969173	      4.22193016	      0.07368658	      6.81590997	     -8.05304857	     -7.49999987	      1.36849399	     -0.39502935	      6.73335820	      3.86493232	      0.06745579	      5.28673941	     -4.19792663	     -7.49999987	     -5.25456421	      1.27493162	     -2.84695719	      0.51488109	     -9.37212808	      8.41684299	     28.29404236	     73.82419478	     -3.81705038	    -10.26596921	      0.68096128	     35.52894227	     76.94185828
      0.67666670	     -1.73414945	      0.48629905	      2.83821340	     -0.90091881	      1.24431499	     -0.07653297	      1.11725241	     -0.73067856	      4.57395423	      4.34869745	      0.07589909	      6.84281731	     -7.87587333	     -7.49999987	      1.80691689	     -0.36447410	      6.76306525	      3.97531138	      0.06938227	      5.34101034	     -4.08085525	     -7.49999987	     -4.85831164	      1.27853939	     -2.82374900	     -0.05642892	     -9.52438594	      8.33619000	     28.76453653	     73.32441434	     -4.26997389	    -10.28307897	      0.67801551	     36.07953144	     76.37234688
      0.67833330	     -1.48956636	      0.51226563	      2.78561132	     -0.90151079	      1.24314113	     -0.07672787	      0.91501837	     -0.77169642	      4.58830301	      4.44457311	      0.07757243	      6.70700264	     -8.15304277	     -7.49999987	      1.64917673	     -0.28225633	      6.83340613	      4.12589634	      0.07201048	      5.41464476	     -4.24372593	     -7.49999987	     -5.24811388	      1.32116561	     -2.80454706	      0.18496513	     -9.54834808	      8.18904143	     27.92510779	     73.33050950	     -4.01954529	    -10.22372088	      0.68641289	     35.24828192	     76.44082859
      0.68000000	     -1.47839253	      0.50802193	      2.78438266	     -0.90119198	      1.24492623	     -0.07645832	      0.92746843	     -0.77103331	      4.61115529	      4.48656909	      0.07830540	      6.50215282	     -8.34258384	     -7.49999987	      1.70080419	     -0.25829972	      6.93886273	      4.21277052	      0.07352672	      5.41178711	     -4.19860186	     -7.49999987	     -5.31632827	      1.32150394	     -2.81497811	      0.06456317	     -9.57339555	      7.94781666	     27.75492578	     72.59979105	     -4.08455402	    -10.20495995	      0.66252001	     35.09486616	     75.64474411
      0.68166670	     -1.46967249	      0.48614769	      2.73253830	     -0.90025167	      1.24076414	     -0.07699751	      0.93176314	     -0.75167558	      4.76525426	      4.53949593	      0.07922915	      6.41728423	     -8.59657364	     -7.49999987	      1.72478904	     -0.25456383	      7.02535198	      4.28686248	      0.07481986	      5.57609849	     -4.26657431	     -7.49999987	     -5.33144855	      1.34895543	     -2.72817488	     -0.08712008	     -9.69870163	      7.86615097	     27.51979468	     73.02164644	     -4.18554339	    -10.31674814	      0.91452925	     35.01847006	     76.21309586
      0.68333330	     -1.56307687	      0.49526446	      2.72375463	     -0.90046977	      1.24287796	     -0.07685126	      1.06091522	     -0.76945806	      4.70495866	      4.63340118	      0.08086811	      6.47980019	     -8.52952228	     -7.49999987	      1.87386806	     -0.23627585	      7.22199611	      4.35949102	      0.07608747	      5.60170459	     -4.38696093	     -7.49999987	     -5.21453540	      1.33611289	     -2.77874790	     -0.19541583	     -9.64155256	      6.85711896	     27.17873127	     76.47820734	     -4.33415585	    -10.16070812	     -0.29384622	     34.73060056	     80.82811716
      0.68500000	     -1.52610320	      0.50886495	      2.71085044	     -0.90023324	      1.24503597	     -0.07797760	      0.97904608	     -0.81426979	      4.69520936	      4.59007128	      0.08011186	      6.45786076	     -8.43716722	     -7.49999987	      1.83411182	     -0.20885729	      7.38599553	      4.38495251	      0.07653186	      5.60010412	     -4.47862024	     -7.49999987	     -5.26504940	      1.32235121	     -2.80938024	     -0.34960633	     -9.69202269	      6.62780574	     27.11369454	     75.52285038	     -4.48087636	    -10.13859901	     -0.36438840	     34.66453552	     79.75259543
      0.68666670	     -1.61255965	      0.53873741	      2.68148583	     -0.90158528	      1.24444454	     -0.07882328	      1.12947774	     -0.89780989	      4.54663741	      4.62991907	      0.08080733	      6.57438492	     -8.06088497	     -7.49999987	      1.93689462	     -0.11884867	      7.51294864	      4.43412674	      0.07739011	      5.61263349	     -4.57503853	     -7.49999987	     -5.15515692	      1.33742050	     -2.75336402	     -0.47149295	     -9.71897563	      6.43337696	     26.80917117	     74.66854692	     -4.49648109	    -10.07589330	     -0.26381899	     34.32204322	     78.74096967
      0.68833330	     -1.58767094	      0.57978295	      2.63166258	     -0.90063807	      1.24522179	     -0.07880419	      1.10760515	     -0.96113787	      4.76215557	      4.60056892	      0.08029508	      6.27407283	     -8.48388087	     -7.49999987	      1.91178652	     -0.03267220	      7.79819010	      4.49280014	      0.07841416	      5.49256670	     -4.82473260	     -7.49999987	     -5.18794666	      1.30259468	     -2.70717391	     -0.55126713	     -9.82576046	      6.85148402	     26.62093992	     72.97059668	     -4.57411911	    -10.25154661	      0.60410328	     34.30117169	     76.65121103
      0.69000000	     -1.58237346	      0.58854287	      2.57164104	     -0.90082532	      1.24438814	     -0.07952390	      1.15371382	     -1.01390130	      4.67202774	      4.67095780	      0.08152359	      6.22272918	     -8.33892218	     -7.49999987	      1.94751238	      0.01801414	      7.90462422	      4.59756269	      0.08024261	      5.52478411	     -4.85738717	     -7.49999987	     -5.22275618	      1.34360840	     -2.71383237	     -0.61067518	     -9.89423656	      6.70830455	     26.44350705	     72.74413196	     -4.66443521	    -10.20588554	      0.46127341	     34.09815634	     76.41065600
